<?xml version="1.0" encoding="UTF-8" standalone="no"?>
<!DOCTYPE svg PUBLIC "-//W3C//DTD SVG 1.1//EN"
 "http://www.w3.org/Graphics/SVG/1.1/DTD/svg11.dtd">
<!-- Generated by graphviz version 2.40.1 (20161225.0304)
 -->
<!-- Title: G Pages: 1 -->
<svg width="397pt" height="216pt"
 viewBox="0.00 0.00 396.57 216.00" xmlns="http://www.w3.org/2000/svg" xmlns:xlink="http://www.w3.org/1999/xlink">
<g id="graph0" class="graph" transform="scale(1 1) rotate(0) translate(4 212)">
<title>G</title>
<polygon fill="#ffffff" stroke="transparent" points="-4,4 -4,-212 392.566,-212 392.566,4 -4,4"/>
<!-- A0 -->
<g id="node1" class="node">
<title>A0</title>
<polygon fill="none" stroke="#000000" points="137.2728,-208 51.7302,-208 51.7302,-172 137.2728,-172 137.2728,-208"/>
<text text-anchor="middle" x="94.5015" y="-187" font-family="Helvetica,sans-Serif" font-size="10.00" fill="#000000">FIFORhymer</text>
</g>
<!-- A1 -->
<g id="node2" class="node">
<title>A1</title>
<polygon fill="none" stroke="#000000" points="133.0045,-122 -.0015,-122 -.0015,-86 133.0045,-86 133.0045,-122"/>
<text text-anchor="middle" x="66.5015" y="-101" font-family="Helvetica,sans-Serif" font-size="10.00" fill="#000000">DefaultRhymersFactory</text>
</g>
<!-- A0&#45;&gt;A1 -->
<g id="edge1" class="edge">
<title>A0&#45;&gt;A1</title>
<path fill="none" stroke="#000000" d="M84.8337,-160.3061C80.7101,-147.6406 76.0302,-133.2667 72.431,-122.2121"/>
<polygon fill="none" stroke="#000000" points="84.8483,-160.3511 90.5094,-164.818 88.5634,-171.7616 82.9024,-167.2947 84.8483,-160.3511"/>
</g>
<!-- A2 -->
<g id="node3" class="node">
<title>A2</title>
<polygon fill="none" stroke="#000000" points="301.7986,-122 151.2044,-122 151.2044,-86 301.7986,-86 301.7986,-122"/>
<text text-anchor="middle" x="226.5015" y="-101" font-family="Helvetica,sans-Serif" font-size="10.00" fill="#000000">DefaultCountingOutRhymer</text>
</g>
<!-- A0&#45;&gt;A2 -->
<g id="edge2" class="edge">
<title>A0&#45;&gt;A2</title>
<path fill="none" stroke="#000000" d="M122.173,-171.9716C141.9734,-159.0713 168.8171,-141.5822 190.3167,-127.575"/>
<polygon fill="#000000" stroke="#000000" points="198.8664,-122.0047 192.9442,-131.2339 194.6771,-124.7341 190.4878,-127.4635 190.4878,-127.4635 190.4878,-127.4635 194.6771,-124.7341 188.0313,-123.6931 198.8664,-122.0047 198.8664,-122.0047"/>
</g>
<!-- A6 -->
<g id="node7" class="node">
<title>A6</title>
<polygon fill="none" stroke="#000000" points="117.332,-36 15.671,-36 15.671,0 117.332,0 117.332,-36"/>
<text text-anchor="middle" x="66.5015" y="-15" font-family="Helvetica,sans-Serif" font-size="10.00" fill="#000000">RhymersFactory</text>
</g>
<!-- A1&#45;&gt;A6 -->
<g id="edge5" class="edge">
<title>A1&#45;&gt;A6</title>
<path fill="none" stroke="#000000" d="M66.5015,-75.4762C66.5015,-62.5329 66.5015,-47.6086 66.5015,-36.2121"/>
<polygon fill="#000000" stroke="#000000" points="66.5015,-85.7616 62.0016,-75.7616 66.5015,-80.7616 66.5016,-75.7616 66.5016,-75.7616 66.5016,-75.7616 66.5015,-80.7616 71.0016,-75.7617 66.5015,-85.7616 66.5015,-85.7616"/>
</g>
<!-- A3 -->
<g id="node4" class="node">
<title>A3</title>
<polygon fill="none" stroke="#000000" points="271.1116,-208 181.8914,-208 181.8914,-172 271.1116,-172 271.1116,-208"/>
<text text-anchor="middle" x="226.5015" y="-187" font-family="Helvetica,sans-Serif" font-size="10.00" fill="#000000">HanoiRhymer</text>
</g>
<!-- A3&#45;&gt;A2 -->
<g id="edge3" class="edge">
<title>A3&#45;&gt;A2</title>
<path fill="none" stroke="#000000" d="M226.5015,-171.7616C226.5015,-160.3597 226.5015,-145.4342 226.5015,-132.494"/>
<polygon fill="#000000" stroke="#000000" points="226.5015,-122.2121 231.0016,-132.2121 226.5015,-127.2121 226.5016,-132.2121 226.5016,-132.2121 226.5016,-132.2121 226.5015,-127.2121 222.0016,-132.2121 226.5015,-122.2121 226.5015,-122.2121"/>
</g>
<!-- A4 -->
<g id="node5" class="node">
<title>A4</title>
<polygon fill="none" stroke="#000000" points="388.6306,-208 304.3724,-208 304.3724,-172 388.6306,-172 388.6306,-208"/>
<text text-anchor="middle" x="346.5015" y="-187" font-family="Helvetica,sans-Serif" font-size="10.00" fill="#000000">IntLinkedList</text>
</g>
<!-- A5 -->
<g id="node6" class="node">
<title>A5</title>
<polygon fill="none" stroke="#000000" points="373.5015,-122 319.5015,-122 319.5015,-86 373.5015,-86 373.5015,-122"/>
<text text-anchor="middle" x="346.5015" y="-101" font-family="Helvetica,sans-Serif" font-size="10.00" fill="#000000">Node</text>
</g>
<!-- A4&#45;&gt;A5 -->
<g id="edge4" class="edge">
<title>A4&#45;&gt;A5</title>
<path fill="none" stroke="#000000" d="M346.5015,-159.5205C346.5015,-147.0493 346.5015,-133.0388 346.5015,-122.2121"/>
<polygon fill="none" stroke="#000000" points="346.5016,-159.7616 350.5015,-165.7616 346.5015,-171.7616 342.5015,-165.7616 346.5016,-159.7616"/>
</g>
</g>
</svg>
